<svg width="50" height="83" viewBox="0 0 50 83" fill="none" xmlns="http://www.w3.org/2000/svg">
<path d="M16.5234 46.9375C12.9609 46.9375 10.0703 45.8047 7.85156 43.5391C5.74219 41.3828 4.6875 38.6094 4.6875 35.2188V18.8125L16.5234 9.67188C20.0859 9.67188 22.9766 10.8047 25.1953 13.0703C27.3047 15.2266 28.3594 18 28.3594 21.3906L23.9062 23.5H23.6719V21.3906C23.6719 19.2969 23.1094 17.6016 21.9844 16.3047C20.5938 14.6953 18.7734 13.8906 16.5234 13.8906C14.2578 13.8906 12.4375 14.6953 11.0625 16.3047C9.9375 17.6016 9.375 19.2969 9.375 21.3906V35.2188C9.375 37.2812 9.9375 38.9766 11.0625 40.3047C12.4219 41.9141 14.2422 42.7188 16.5234 42.7188C18.7578 42.7188 20.5781 41.9141 21.9844 40.3047C23.1094 39.0078 23.6719 37.3125 23.6719 35.2188V33.7656H15.1641V33.5312L16.5 30.7188H28.3594V37.7969L16.5234 46.9375Z" fill="white"/>
<path d="M13.1719 62.7656V62.5312L14.5078 59.7188H16.6875V47.8125L28.5234 38.6719C32.0859 38.6719 34.9766 39.8047 37.1953 42.0703C39.3047 44.2266 40.3594 47 40.3594 50.3906V73.7812L35.9062 75.9375H35.6719V50.3906C35.6719 48.2969 35.1094 46.6016 33.9844 45.3047C32.5938 43.6953 30.7734 42.8906 28.5234 42.8906C26.2266 42.8906 24.4062 43.6953 23.0625 45.3047C21.9375 46.6484 21.375 48.3438 21.375 50.3906V59.7188H32.3906V59.9531L31.0547 62.7656H21.375V73.8281L16.9219 75.9375H16.6875V62.7656H13.1719Z" fill="white"/>
</svg>
